<?xml version="1.0" standalone="no"?>
<!DOCTYPE svg PUBLIC "-//W3C//DTD SVG 20010904//EN"
 "http://www.w3.org/TR/2001/REC-SVG-20010904/DTD/svg10.dtd">
<svg version="1.0" xmlns="http://www.w3.org/2000/svg"
 width="2560.000000pt" height="925.000000pt" viewBox="0 0 2560.000000 925.000000"
 preserveAspectRatio="xMidYMid meet">
<metadata>
Created by potrace 1.16, written by Peter Selinger 2001-2019
</metadata>
<g transform="translate(0.000000,925.000000) scale(0.100000,-0.100000)"
fill="#000000" stroke="none">
<path d="M0 4625 l0 -4625 12795 0 12795 0 2 4621 c2 2541 1 4623 -1 4625 -2
2 -5761 4 -12798 4 l-12793 0 0 -4625z m4200 2025 c0 -5 -60 -213 -134 -462
-74 -249 -149 -507 -166 -573 -17 -66 -39 -140 -49 -165 -17 -41 -85 -263
-131 -430 -10 -36 -95 -324 -189 -640 -95 -316 -174 -585 -177 -597 l-6 -23
317 0 318 0 -6 -62 c-6 -63 -4 -67 7 -15 l7 28 132 -3 132 -3 3 -48 3 -48
-153 2 -153 1 -68 -72 c-57 -59 -68 -76 -63 -96 5 -17 2 -24 -8 -24 -9 0 -31
-7 -50 -16 l-34 -17 -58 48 c-186 150 -331 307 -449 485 -163 247 -256 517
-284 820 -7 71 -11 463 -11 1018 l0 902 635 0 c405 0 635 -4 635 -10z m1590
-877 c0 -921 -5 -1053 -40 -1238 -77 -394 -296 -760 -628 -1047 -85 -73 -108
-88 -126 -83 -11 4 -41 10 -65 12 -24 3 -38 8 -32 12 12 8 -74 139 -107 163
-16 11 -42 100 -42 145 0 10 58 13 310 13 224 0 310 3 310 11 0 7 -38 136 -84
288 -47 152 -137 449 -201 661 -64 212 -127 419 -140 460 -20 63 -144 471
-405 1333 l-47 157 648 0 649 0 0 -887z m17010 582 l0 -305 -310 0 -310 0 0
305 0 305 310 0 310 0 0 -305z m-15380 -710 l0 -1005 2250 0 2250 0 0 1005 0
1005 2875 0 2875 0 0 -1010 0 -1010 2255 0 2255 0 0 555 0 555 315 0 315 0 0
-865 0 -865 -2887 2 c-2302 2 -2888 6 -2889 16 -1 6 -2 138 -3 292 l-1 280
-2235 0 -2235 0 0 -295 0 -295 -2885 0 -2885 0 0 1320 0 1320 315 0 315 0 0
-1005z m-3016 -166 l37 -192 -28 -29 -28 -29 -5 177 c-4 133 -8 178 -18 180
-7 1 -8 0 -2 -3 6 -3 10 -74 10 -191 l0 -186 53 52 c48 47 77 64 77 45 0 -5
-26 -31 -57 -60 l-58 -52 192 -1 c143 0 193 -3 196 -12 3 -8 6 -6 6 4 1 15 8
17 49 11 94 -12 83 -16 -163 -51 l-210 -31 -23 22 -24 22 179 5 178 6 -187 2
c-104 1 -188 -1 -188 -5 0 -5 23 -29 51 -54 32 -28 50 -51 47 -60 -4 -10 -22
3 -62 44 l-56 59 0 -266 c0 -168 -4 -266 -10 -266 -6 0 -11 99 -12 262 l-3
262 -58 -52 c-52 -48 -77 -62 -77 -46 0 4 28 33 63 65 l62 59 -188 0 c-139 0
-186 3 -181 12 5 8 51 9 166 5 102 -4 157 -3 153 3 -3 6 -61 11 -128 11 l-122
2 108 15 c90 12 113 12 133 2 13 -8 24 -19 24 -25 0 -6 8 -12 17 -12 10 0 -8
22 -46 56 -34 31 -61 59 -61 63 0 16 38 -8 88 -56 l53 -51 -1 210 c-2 260 -2
265 9 265 5 0 25 -86 45 -191z m-53 -866 c6 -7 15 -10 20 -7 5 3 9 121 9 262
l0 257 31 -31 31 -31 -37 -294 c-20 -162 -39 -296 -41 -298 -2 -2 -6 -2 -8 0
-2 2 -20 137 -39 299 l-36 295 27 28 27 28 3 -247 c1 -161 6 -252 13 -261z
m105 -313 c31 0 34 2 34 30 0 29 2 30 45 30 45 0 45 0 45 -35 0 -32 2 -35 30
-35 28 0 30 3 30 35 0 31 3 35 25 35 24 0 25 -3 25 -55 l0 -55 -331 0 -330 0
3 52 c2 40 7 54 20 56 12 2 17 -5 20 -30 2 -27 8 -34 30 -36 24 -3 27 1 30 30
3 31 6 33 45 36 41 3 42 2 45 -30 3 -29 7 -33 36 -36 31 -3 32 -2 32 32 l0 35
63 3 62 3 3 -32 c3 -30 6 -33 38 -33z m224 -68 c0 -5 -8 -16 -18 -26 -17 -15
-50 -16 -307 -14 -286 3 -288 3 -303 26 l-14 22 321 0 c176 0 321 -4 321 -8z
m-150 -347 c0 -30 -3 -35 -22 -35 -13 0 -34 9 -48 20 -14 11 -29 20 -34 20 -5
0 4 -10 19 -22 35 -27 69 -99 52 -110 -20 -13 -24 -9 -31 22 -10 52 -47 80
-105 80 -43 0 -53 -4 -75 -31 -14 -17 -26 -39 -26 -50 0 -10 -7 -19 -15 -19
-8 0 -15 8 -15 18 0 15 -8 17 -65 14 -64 -4 -65 -4 -65 23 0 26 0 26 74 24 68
-2 77 0 106 24 24 21 43 27 83 28 29 1 42 4 30 6 -51 10 -18 23 57 23 l80 0 0
-35z m-99 -61 c21 -23 24 -36 27 -120 l4 -94 -97 0 -97 0 4 99 c4 122 16 141
88 141 37 0 51 -5 71 -26z m-1255 -241 c125 -123 140 -153 78 -153 -20 0 -69
13 -109 29 -96 39 -138 46 -175 31 -17 -7 -30 -16 -30 -21 0 -20 -31 -7 -54
24 -30 39 -65 115 -66 141 0 17 3 16 33 -8 40 -32 105 -72 132 -80 19 -6 20
-1 20 107 0 61 4 121 8 132 7 17 12 11 29 -35 17 -46 40 -74 134 -167z m2503
122 c6 -22 11 -64 11 -92 0 -36 4 -53 13 -53 6 0 45 18 85 40 82 45 79 49 40
-57 -23 -62 -42 -81 -67 -66 -15 9 -16 6 -13 -23 4 -31 -2 -40 -60 -97 -36
-34 -91 -80 -122 -101 l-57 -39 -17 24 c-9 13 -33 49 -54 79 l-37 55 34 7 c19
4 73 28 119 54 47 25 107 49 133 54 45 7 46 8 12 9 -26 1 -69 -15 -147 -54
-61 -30 -118 -55 -126 -55 -23 0 -46 28 -39 48 4 9 49 62 101 117 101 107 152
176 152 209 0 20 0 20 14 1 7 -11 19 -38 25 -60z m-935 -12 c2 -10 7 -33 11
-50 l7 -33 -146 0 -146 0 0 44 c0 26 5 46 13 49 6 2 67 5 134 6 108 1 122 -1
127 -16z m15771 -39 c9 -25 13 -49 9 -54 -5 -4 -58 -24 -119 -45 -60 -20 -115
-39 -120 -41 -6 -2 -17 12 -24 33 -11 28 -11 38 -2 41 7 2 60 28 119 57 59 30
110 54 113 54 4 1 14 -20 24 -45z m577 -4 c68 -26 99 -25 133 2 l28 22 23 -28
c27 -31 28 -35 11 -56 -39 -51 -127 -66 -200 -35 -46 19 -97 19 -123 0 -19
-13 -23 -12 -49 15 -25 26 -26 31 -14 46 18 22 87 53 116 54 13 0 46 -9 75
-20z m-16304 -70 c39 -31 103 -133 89 -142 -24 -15 -47 -8 -53 17 -4 15 -13
25 -24 25 -17 0 -60 43 -60 61 0 4 15 9 33 11 17 2 -112 2 -288 0 -357 -2
-345 -2 -345 -14 0 -5 8 -7 18 -4 9 2 37 8 61 11 40 7 43 6 36 -11 -5 -11 -9
-34 -11 -53 -3 -45 -14 -54 -58 -46 -57 11 -117 103 -68 106 26 2 -27 17 -63
18 -43 2 -105 20 -105 31 0 6 155 10 406 10 392 0 407 -1 432 -20z m-813 -15
c22 -8 57 -14 78 -15 30 0 37 -4 37 -20 0 -10 -12 -27 -26 -37 -14 -10 -38
-28 -54 -40 -36 -30 -54 -29 -75 3 -16 25 -16 27 9 53 46 48 27 38 -30 -16
-55 -52 -84 -66 -84 -40 0 10 96 128 103 127 1 0 20 -7 42 -15z m368 -22 c4
-3 -3 -17 -15 -30 -12 -13 -18 -23 -14 -23 5 0 17 11 28 26 20 24 24 25 122
23 55 -1 137 2 181 6 l81 7 18 -40 c17 -38 16 -62 -5 -62 -14 0 -11 28 4 33 8
4 9 6 0 6 -6 1 -19 -6 -27 -14 -18 -19 -49 -7 -66 25 -6 11 -15 20 -21 20 -5
0 -1 -10 10 -22 11 -11 18 -25 15 -29 -6 -11 41 -23 55 -14 6 3 11 1 11 -4 0
-16 26 -13 40 4 17 20 46 19 54 -2 11 -29 -8 -35 -75 -23 -71 13 -109 31 -155
73 l-31 28 4 -28 c2 -15 -1 -35 -7 -43 -9 -13 -15 -10 -40 19 -16 19 -33 32
-36 28 -4 -4 -3 -7 3 -7 5 0 15 -11 21 -25 7 -14 22 -29 34 -34 23 -9 22 -9
-6 -16 -16 -4 -53 -2 -84 5 l-56 12 37 34 c20 19 33 34 29 34 -5 0 -19 -11
-32 -25 -27 -29 -74 -33 -104 -10 -11 8 -30 15 -43 15 -27 0 -27 1 -11 35 8
19 19 25 43 25 17 0 35 -3 38 -7z m-1243 -78 c46 -22 134 -48 163 -47 l28 1
-24 -32 c-13 -18 -41 -55 -62 -84 l-38 -52 -46 32 c-72 48 -161 144 -161 171
0 14 6 27 13 29 18 8 98 -4 127 -18z m2763 -94 c58 -56 67 -69 67 -100 0 -20
-9 -49 -19 -65 -30 -46 -155 -149 -283 -235 -413 -278 -897 -411 -1383 -381
-434 27 -889 193 -1285 469 -212 147 -224 192 -89 330 32 34 62 61 67 61 4 0
21 -20 37 -44 80 -117 410 -320 690 -425 224 -83 407 -120 640 -128 334 -12
641 55 950 207 242 119 488 301 502 372 7 34 5 34 106 -61z m5339 57 c59 -28
110 -75 129 -120 15 -36 12 -39 -79 -63 -62 -17 -65 -17 -75 0 -32 59 -94 83
-168 66 -47 -11 -69 -32 -69 -67 0 -43 34 -62 159 -89 105 -23 165 -51 206
-97 45 -50 57 -79 57 -149 0 -89 -52 -173 -131 -213 -130 -67 -319 -53 -428
30 -37 28 -92 130 -77 143 5 4 36 13 69 20 33 7 67 14 75 17 10 2 23 -9 35
-33 56 -104 265 -93 265 14 0 43 -22 57 -130 82 -168 39 -228 73 -261 145 -60
133 19 290 168 332 71 20 189 12 255 -18z m5123 -3 c66 -32 123 -98 157 -182
20 -50 23 -76 23 -188 0 -113 -3 -138 -24 -188 -35 -89 -77 -137 -153 -176
-56 -28 -77 -34 -139 -35 -101 -1 -160 18 -219 71 -92 83 -136 210 -127 368
13 238 147 373 359 361 48 -2 84 -11 123 -31z m2000 6 c69 -30 117 -81 154
-160 107 -234 22 -532 -172 -597 -76 -26 -188 -24 -254 5 -132 58 -216 236
-200 425 15 181 110 309 254 346 59 15 162 6 218 -19z m-14183 -7 c66 -27 84
-27 159 2 45 17 49 17 121 -1 72 -18 77 -18 141 0 64 17 71 17 146 1 44 -10
96 -15 118 -12 l38 6 -30 -15 c-40 -19 -89 -19 -127 1 -36 19 -92 15 -160 -12
-46 -18 -47 -18 -100 4 -68 28 -126 28 -179 0 l-42 -22 -61 22 c-70 25 -120
27 -156 7 -14 -8 -36 -14 -50 -14 -23 1 -23 2 5 9 17 4 48 17 70 29 21 12 41
21 42 21 2 0 31 -12 65 -26z m2850 -256 c3 -301 5 -312 54 -345 30 -19 128
-22 162 -4 54 29 57 42 60 348 l4 284 76 -3 77 -3 0 -290 c-1 -335 -5 -358
-70 -421 -60 -59 -125 -78 -250 -78 -158 1 -246 47 -292 149 -15 35 -18 79
-21 343 l-4 302 101 0 100 0 3 -282z m912 54 l131 -223 3 225 2 226 70 0 70 0
0 -390 0 -390 -82 0 -83 1 -139 239 c-76 132 -143 246 -150 255 -8 12 -10 -48
-8 -240 l3 -255 -75 0 -76 0 0 390 0 391 101 -3 101 -3 132 -223z m624 -164
l2 -388 -95 0 -95 0 0 390 0 391 93 -3 92 -3 3 -387z m273 362 c4 -14 38 -134
75 -267 37 -134 70 -243 73 -243 3 0 39 111 79 248 40 136 77 257 82 270 9 20
16 22 86 22 57 0 75 -3 72 -12 -3 -7 -56 -183 -119 -390 l-114 -378 -102 0
-101 0 -21 63 c-41 126 -211 696 -211 707 0 7 31 10 97 8 93 -3 97 -4 104 -28z
m1109 -45 l0 -75 -190 0 -190 0 0 -80 0 -79 148 -3 147 -3 3 -72 3 -73 -151 0
-150 0 0 -85 0 -85 190 0 190 0 0 -75 0 -75 -285 0 -285 0 0 390 0 390 285 0
285 0 0 -75z m605 52 c88 -39 135 -113 135 -212 0 -91 -35 -153 -114 -200 -15
-9 -9 -28 54 -173 38 -90 70 -165 70 -168 0 -2 -46 -4 -102 -4 l-103 0 -60
153 -60 152 -65 0 -65 0 0 -152 0 -153 -92 0 -93 0 0 391 0 391 228 -4 c189
-3 234 -7 267 -21z m1155 -367 l0 -390 -90 0 -90 0 0 390 0 390 90 0 90 0 0
-390z m577 366 c133 -42 233 -203 233 -374 0 -112 -59 -244 -137 -309 -74 -61
-128 -73 -333 -73 l-180 0 0 391 0 391 183 -5 c129 -3 197 -9 234 -21z m861
-358 c67 -211 122 -386 122 -390 0 -5 -44 -8 -98 -8 l-98 0 -25 78 -24 77
-125 0 -125 0 -25 -77 -25 -78 -84 0 c-63 0 -82 3 -78 13 2 6 19 57 36 112 18
55 73 225 122 378 l91 277 107 0 108 0 121 -382z m632 356 c77 -25 168 -116
200 -199 33 -85 34 -245 2 -327 -43 -108 -130 -191 -227 -217 -22 -6 -120 -11
-217 -11 l-178 0 0 391 0 391 183 -4 c140 -4 195 -10 237 -24z m1034 18 c5 -9
246 -760 246 -768 0 -2 -45 -4 -100 -4 l-99 0 -24 78 -24 77 -126 3 -126 3
-24 -78 -23 -78 -83 -3 c-82 -3 -83 -3 -76 20 15 51 227 705 237 731 l10 27
104 0 c56 0 105 -4 108 -8z m685 -2 c160 -26 263 -137 291 -312 28 -181 -58
-363 -205 -430 -46 -21 -67 -23 -242 -26 l-193 -4 0 391 0 391 143 0 c78 0
171 -5 206 -10z m1363 -302 l3 -313 155 -5 155 -5 3 -72 3 -73 -256 0 -255 0
0 383 c0 211 3 387 7 390 3 4 46 7 95 7 l88 0 2 -312z m968 232 l0 -80 -182
-2 -183 -3 0 -80 0 -80 148 -3 147 -3 0 -74 0 -74 -147 -3 -148 -3 -3 -147 -3
-148 -94 0 -95 0 0 383 c0 211 3 387 7 390 3 4 129 7 280 7 l273 0 0 -80z
m1340 -310 l0 -390 -95 0 -95 0 0 390 0 390 95 0 95 0 0 -390z m668 366 c150
-64 164 -263 23 -335 l-36 -19 40 -16 c50 -21 72 -42 96 -88 34 -67 19 -169
-34 -226 -12 -13 -40 -34 -62 -45 -37 -21 -56 -22 -290 -25 l-250 -3 2 383 c2
211 3 387 3 391 0 5 105 7 233 5 197 -3 238 -6 275 -22z m666 -23 c132 -415
226 -712 226 -722 0 -7 -31 -11 -98 -11 l-98 0 -25 78 -24 77 -125 0 -125 0
-24 -77 -25 -78 -84 0 c-65 0 -83 3 -79 13 3 7 60 183 128 390 l123 377 107 0
107 0 16 -47z m645 -175 c69 -120 129 -218 134 -218 4 0 7 99 7 220 l0 220 70
0 70 0 0 -390 0 -391 -82 3 -82 3 -146 247 c-80 136 -148 249 -150 252 -3 2
-4 -110 -2 -250 l3 -254 -75 0 -76 0 0 390 0 391 101 -3 102 -3 126 -217z
m1009 145 l3 -73 -191 0 -190 0 0 -80 0 -80 144 0 c165 0 154 7 148 -97 l-4
-53 -144 0 -144 0 0 -85 0 -85 190 0 190 0 0 -75 0 -75 -285 0 -285 0 0 390 0
390 283 -2 282 -3 3 -72z m682 10 l0 -68 -97 -120 c-53 -66 -143 -177 -199
-247 -57 -69 -100 -129 -97 -132 4 -3 96 -6 205 -6 l198 0 0 -70 0 -70 -320 0
-320 0 0 65 0 66 195 244 c107 134 195 247 195 250 0 3 -81 5 -180 5 l-180 0
0 75 0 75 300 0 300 0 0 -67z m-18876 -38 c35 -19 55 -19 80 0 29 22 103 18
163 -7 l53 -22 45 22 c57 27 119 28 176 2 56 -25 75 -25 122 0 43 23 111 26
147 5 33 -19 81 -19 129 1 21 8 56 14 77 12 41 -4 36 -8 -31 -26 -22 -6 -58
-16 -81 -23 -37 -11 -47 -10 -98 11 -61 26 -57 26 -176 -13 -44 -14 -49 -14
-100 9 -68 29 -95 30 -145 4 -49 -25 -81 -25 -136 0 -55 25 -83 25 -138 -1
l-45 -20 -49 21 c-27 12 -61 21 -75 20 -41 -3 -52 -1 -52 10 0 16 102 12 134
-5z m242 -97 l61 -22 42 22 c53 28 100 28 178 0 l62 -22 53 22 c64 27 99 28
155 5 76 -32 44 -46 -35 -16 -42 16 -45 15 -95 -5 -65 -27 -98 -27 -165 -2
-66 25 -88 25 -135 0 -47 -26 -78 -25 -153 2 -59 21 -63 21 -104 5 -53 -21
-75 -10 -29 14 45 24 92 23 165 -3z"/>
<path d="M3884 6355 c-3 -8 -1 -29 5 -47 13 -36 7 -104 -16 -194 -10 -42 -12
-67 -6 -79 9 -15 11 -14 17 11 19 74 56 117 56 64 0 -10 5 -31 11 -47 17 -44
28 -8 12 39 -25 73 -26 119 -4 182 25 70 24 66 8 66 -18 0 -40 -39 -48 -85
l-7 -40 0 50 c0 84 -2 95 -12 95 -6 0 -13 -7 -16 -15z"/>
<path d="M3432 6333 c-39 -4 -42 -7 -41 -31 0 -15 -7 -48 -18 -74 -17 -47 -17
-50 4 -152 12 -57 19 -113 16 -124 -4 -15 3 -24 26 -36 39 -20 57 -20 65 0 6
15 9 14 30 -5 l24 -23 11 21 c16 29 28 26 47 -11 l17 -32 19 23 19 24 50 -27
50 -28 -32 59 c-40 74 -41 76 -121 140 -62 49 -68 57 -68 91 0 20 -5 44 -10
52 -8 12 -10 9 -10 -12 0 -16 -4 -28 -8 -28 -17 0 1 63 19 67 11 3 19 12 19
20 0 12 -9 14 -40 10 -42 -5 -50 2 -24 24 14 12 14 14 -2 19 -15 6 -11 9 18
19 28 9 42 9 59 1 17 -10 20 -9 17 2 -5 14 -59 18 -136 11z"/>
<path d="M3210 6237 c0 -24 -5 -40 -15 -43 -8 -4 -15 -13 -15 -20 0 -8 7 -17
15 -20 8 -4 15 -15 15 -26 0 -13 -5 -18 -14 -15 -18 7 -40 -18 -31 -33 4 -6
13 -9 20 -6 7 2 16 -2 19 -10 10 -25 7 -34 -9 -28 -27 11 -18 -43 10 -62 20
-13 23 -20 14 -35 -14 -26 -5 -37 26 -31 23 4 25 2 25 -36 0 -39 2 -41 36 -48
23 -4 38 -14 44 -28 16 -43 36 -50 86 -31 34 13 49 14 57 6 6 -6 20 -11 31
-11 15 0 10 -6 -19 -27 -46 -34 -92 -80 -106 -105 -15 -28 3 -22 46 15 l38 33
30 -30 c26 -28 28 -29 24 -8 -3 12 -2 22 3 22 9 0 20 -36 20 -67 0 -13 17 -38
40 -59 22 -20 42 -46 46 -57 5 -16 8 -17 15 -6 5 8 9 24 9 37 0 13 6 22 16 22
12 0 14 7 9 29 -3 17 -2 32 4 36 23 14 9 23 -21 14 -45 -13 -44 -13 -62 26
-14 28 -15 42 -7 73 19 66 14 124 -15 166 -26 38 -26 38 -41 16 -14 -20 -16
-20 -33 -5 -14 13 -23 14 -38 6 -12 -6 -28 -8 -37 -5 -13 5 -15 2 -10 -22 6
-26 5 -27 -6 -9 -19 32 -41 45 -66 39 -19 -5 -25 -2 -29 13 -3 11 -21 27 -40
36 -29 14 -34 22 -33 49 1 18 -2 53 -6 77 -8 41 -7 43 13 36 18 -5 21 -3 15
12 -3 10 -13 26 -21 36 -8 9 -12 17 -8 17 13 0 45 -44 46 -62 0 -9 -9 -19 -19
-23 -17 -5 -18 -10 -9 -36 5 -16 7 -40 4 -54 -5 -18 -1 -27 13 -35 26 -14 38
-13 23 2 -21 21 -13 59 18 88 17 15 30 33 30 38 0 6 -21 30 -46 54 -26 24 -60
63 -75 87 l-29 45 0 -37z"/>
<path d="M3787 6025 c-3 -19 -15 -48 -26 -64 -27 -38 -26 -52 4 -85 25 -27 25
-28 5 -33 -13 -4 -19 -11 -16 -20 3 -8 6 -17 6 -19 0 -3 14 2 30 11 25 13 30
22 30 51 0 42 48 98 74 88 12 -5 15 -2 10 11 -5 12 -14 15 -31 10 -16 -4 -22
-2 -18 5 3 5 3 20 -1 32 -6 20 -7 21 -19 4 -12 -16 -14 -14 -20 13 -9 41 -21
39 -28 -4z"/>
<path d="M3639 5878 c-6 -11 -9 -36 -6 -55 3 -18 1 -61 -5 -94 -8 -44 -7 -67
1 -85 14 -32 20 -27 70 47 34 50 41 70 41 108 -1 44 -3 47 -45 73 -45 27 -45
27 -56 6z"/>
<path d="M3150 5766 c0 -70 -23 -132 -94 -249 -30 -51 -58 -104 -61 -119 -10
-39 11 -91 49 -129 28 -26 32 -37 26 -55 -10 -25 -2 -64 12 -64 5 0 8 -6 6
-13 -6 -26 25 -87 44 -87 17 0 17 -2 3 -23 -14 -22 -12 -37 6 -37 5 0 13 9 19
20 8 15 3 37 -25 104 -19 47 -35 96 -35 110 0 33 17 76 30 76 6 0 4 -12 -5
-30 -21 -40 -20 -47 20 -141 42 -99 43 -112 10 -144 -13 -14 -33 -45 -44 -70
-16 -36 -18 -51 -9 -81 5 -20 7 -48 4 -63 -6 -25 -6 -25 10 -6 11 14 14 33 11
65 -5 40 -4 43 9 25 17 -23 17 -30 -2 -80 -16 -42 -21 -165 -9 -186 5 -7 3
-10 -6 -7 -9 3 -14 21 -15 49 0 24 -2 58 -3 74 l-3 30 -9 -35 c-6 -22 -5 -61
2 -106 14 -88 29 -100 118 -91 56 5 121 31 121 50 0 4 -4 6 -9 3 -4 -3 -16 3
-26 14 -19 21 -45 27 -45 11 0 -5 7 -11 15 -15 8 -3 15 -13 14 -23 0 -15 -2
-15 -16 5 -11 16 -25 22 -53 22 -21 0 -42 6 -47 13 -20 24 -24 96 -8 127 8 16
15 44 15 62 0 18 9 50 20 71 11 20 20 47 20 60 0 12 18 46 39 75 22 28 45 69
52 89 7 21 23 58 36 82 28 53 31 134 7 184 -13 27 -14 41 -6 63 10 29 10 29
11 -11 2 -64 12 -71 60 -41 22 15 41 33 41 41 0 25 49 95 75 107 13 6 26 17
29 24 11 28 -7 73 -40 105 l-34 33 -22 -21 c-22 -20 -80 -53 -94 -53 -4 0 -4
20 -2 44 5 39 3 43 -14 38 -11 -2 -21 -10 -23 -16 -23 -85 -34 -106 -97 -171
-38 -38 -78 -90 -91 -115 -38 -77 -97 -56 -97 35 0 41 14 69 82 166 46 65 76
148 58 159 -7 4 -10 24 -9 50 2 28 -1 45 -9 48 -8 2 -12 -13 -12 -52z"/>
<path d="M3470 5401 c-5 -11 -10 -26 -10 -34 0 -8 -13 -20 -30 -27 -16 -7 -35
-19 -41 -26 -13 -16 -21 -134 -9 -134 14 0 38 36 44 66 7 30 66 99 66 76 0 -6
-9 -16 -19 -21 -23 -13 -41 -61 -41 -112 0 -21 -8 -54 -17 -74 l-17 -35 60
-54 c32 -30 62 -55 66 -56 14 0 -47 79 -65 86 -18 5 -18 7 -1 25 21 23 36 25
27 4 -3 -10 12 -39 41 -75 48 -62 58 -82 30 -59 -13 11 -12 4 5 -29 19 -37 26
-43 49 -40 51 6 117 146 76 162 -16 6 -44 -9 -44 -24 0 -4 12 -6 28 -3 24 3
25 3 5 -6 -12 -5 -33 -27 -47 -48 -26 -37 -26 -37 -26 -11 0 17 -8 31 -20 38
-26 14 -90 114 -90 141 0 12 24 44 56 75 31 31 54 58 50 61 -3 3 1 18 9 34 21
40 19 66 -10 94 -32 33 -109 36 -125 6z"/>
<path d="M4819 6298 c-1 -64 -2 -68 -8 -30 -7 39 -43 93 -56 81 -2 -3 4 -31
15 -62 24 -69 25 -106 1 -174 -19 -55 -11 -101 8 -50 6 16 11 37 11 47 0 53
37 10 56 -64 6 -25 8 -26 16 -11 7 11 5 35 -6 73 -15 54 -22 164 -14 226 2 17
-2 31 -9 33 -10 4 -13 -15 -14 -69z"/>
<path d="M5164 6329 c-4 -8 3 -9 22 -5 16 3 42 -1 59 -9 22 -10 25 -14 11 -14
-18 -1 -18 -2 -3 -19 25 -28 21 -33 -23 -26 -32 5 -40 3 -40 -9 0 -8 8 -17 19
-20 19 -5 35 -63 19 -73 -4 -3 -8 10 -9 28 0 27 -2 30 -9 13 -5 -11 -9 -34 -9
-52 -1 -25 -10 -39 -42 -65 -93 -75 -116 -99 -147 -158 l-32 -62 47 26 46 26
23 -21 22 -21 18 31 c22 37 29 38 45 10 l11 -21 24 23 c21 19 24 20 30 5 8
-20 26 -20 64 -1 25 13 28 20 29 62 0 27 7 73 16 103 19 72 19 124 -2 163 -9
18 -16 44 -15 58 2 25 -1 26 -59 33 -86 9 -107 8 -115 -5z"/>
<path d="M5496 6238 c-10 -18 -43 -58 -73 -89 -48 -50 -54 -59 -44 -78 6 -11
20 -25 31 -31 23 -12 27 -59 8 -78 -14 -14 1 -16 22 -2 8 5 15 25 15 47 1 21
4 45 9 54 5 12 1 18 -13 22 -26 6 -26 35 -2 65 29 34 33 26 9 -15 l-22 -36 23
6 c22 5 23 4 16 -31 -3 -20 -6 -54 -6 -74 0 -32 -4 -40 -29 -53 -16 -8 -34
-25 -41 -36 -8 -15 -17 -19 -33 -15 -24 6 -46 -7 -65 -39 -11 -18 -12 -17 -6
9 5 24 3 27 -10 22 -9 -3 -25 -1 -35 4 -14 8 -26 7 -40 -2 -18 -11 -23 -10
-35 5 -12 17 -15 16 -39 -20 -28 -41 -34 -100 -16 -163 8 -28 7 -43 -6 -72
-19 -42 -17 -41 -62 -29 -30 9 -44 0 -21 -14 6 -4 7 -19 4 -36 -5 -22 -3 -29
9 -29 10 0 16 -9 16 -22 0 -13 4 -29 9 -37 7 -11 10 -10 15 6 4 11 24 37 46
57 23 21 40 46 40 59 0 31 11 67 20 67 5 0 6 -10 3 -22 -6 -22 -4 -21 25 6
l30 28 41 -33 c23 -18 43 -30 46 -27 6 6 -54 88 -64 88 -5 0 -25 14 -46 30
-29 23 -33 30 -18 30 10 0 24 5 30 11 8 8 23 7 57 -6 51 -20 70 -12 87 32 5
13 17 23 28 23 40 0 51 11 51 52 0 38 2 40 25 36 31 -6 40 5 26 31 -9 15 -6
22 14 35 28 19 37 73 10 62 -16 -6 -19 3 -9 28 3 8 12 12 19 10 7 -3 16 -1 19
4 10 16 -5 44 -20 38 -17 -7 -18 18 -2 44 10 16 10 22 -4 32 -9 7 -18 28 -20
46 l-3 34 -19 -34z"/>
<path d="M4913 6030 c-5 -27 -7 -28 -18 -13 -11 15 -13 15 -19 -5 -4 -12 -5
-25 -2 -30 2 -4 -7 -8 -21 -7 -14 0 -28 -6 -30 -12 -3 -8 4 -13 19 -13 42 0
68 -35 68 -89 0 -24 7 -34 29 -45 26 -14 30 -14 35 0 8 22 9 21 -15 27 -21 6
-21 6 5 34 31 34 32 46 5 84 -11 16 -23 45 -26 64 -7 43 -21 45 -30 5z"/>
<path d="M5033 5868 c-39 -27 -43 -33 -43 -71 0 -32 9 -57 41 -104 22 -35 45
-65 50 -68 21 -14 33 44 22 108 -6 34 -9 78 -6 97 2 21 -1 42 -9 51 -12 15
-17 14 -55 -13z"/>
<path d="M5559 5813 c-1 -5 0 -25 1 -47 1 -21 -4 -42 -10 -46 -19 -12 13 -98
60 -161 84 -115 100 -171 66 -223 -27 -42 -56 -31 -91 35 -16 31 -54 78 -84
105 -51 46 -91 113 -91 153 0 10 -11 23 -24 29 -23 10 -23 10 -18 -34 2 -24 2
-44 -2 -44 -14 0 -71 33 -94 53 l-22 21 -30 -29 c-17 -16 -35 -45 -40 -64 -10
-34 -8 -38 30 -71 22 -19 49 -56 60 -82 19 -44 83 -98 98 -83 4 3 9 27 12 53
6 44 7 45 15 18 5 -19 3 -38 -9 -62 -24 -51 -21 -132 7 -185 13 -24 29 -61 36
-82 7 -20 30 -61 52 -89 21 -29 39 -64 39 -78 0 -14 9 -38 20 -55 11 -17 20
-47 20 -68 0 -21 7 -52 16 -68 11 -21 13 -43 8 -74 -7 -52 -24 -69 -59 -63
-18 4 -32 -2 -50 -20 -28 -27 -35 -10 -8 20 14 15 14 18 1 18 -8 0 -23 -9 -33
-20 -10 -11 -22 -17 -26 -14 -5 3 -9 1 -9 -3 0 -19 65 -45 121 -50 86 -8 103
4 118 83 7 39 8 80 4 102 -7 34 -8 31 -13 -32 -3 -38 -10 -71 -15 -73 -8 -2
-9 21 -4 71 6 64 4 81 -12 113 -23 44 -24 63 -5 88 13 18 14 15 9 -25 -3 -32
0 -51 12 -65 15 -19 16 -19 10 10 -3 17 -1 44 4 60 10 37 -16 111 -53 149 -15
14 -26 33 -26 43 0 10 16 57 36 103 34 82 36 101 19 155 -7 20 -6 20 9 1 25
-31 19 -84 -19 -170 -34 -79 -38 -126 -11 -126 23 0 26 13 11 37 -14 21 -14
23 4 23 16 0 28 18 35 52 0 3 4 9 8 13 4 4 4 13 1 21 -3 8 -1 14 5 14 15 0 24
50 12 65 -8 9 -2 21 21 46 36 38 59 86 59 122 0 12 -29 72 -65 132 -72 121
-95 184 -95 257 0 26 -4 48 -10 48 -5 0 -10 -3 -11 -7z"/>
<path d="M5133 5394 c-26 -26 -26 -30 -7 -109 4 -17 30 -52 61 -80 29 -28 53
-60 53 -70 0 -29 -56 -122 -85 -141 -16 -10 -25 -26 -25 -43 -1 -24 -3 -23
-26 17 -29 48 -64 58 -64 19 0 -37 55 -107 84 -107 25 0 36 10 54 52 10 23 9
26 -5 21 -9 -3 7 23 34 58 28 36 48 71 45 79 -4 11 1 10 17 -4 20 -18 20 -20
3 -32 -23 -16 -76 -84 -65 -84 4 1 35 26 67 56 l60 54 -17 35 c-9 20 -17 50
-17 68 0 50 -18 100 -42 119 -13 9 -20 20 -16 23 11 11 56 -47 64 -80 6 -30
31 -65 45 -65 5 0 7 28 5 63 -4 59 -6 63 -41 88 -21 14 -43 40 -51 57 -12 29
-17 32 -59 32 -36 0 -51 -6 -72 -26z"/>
<path d="M12560 5635 l0 -395 2235 0 2235 0 2 391 c2 215 1 393 -1 395 -2 2
-1009 4 -2238 4 l-2233 0 0 -395z"/>
<path d="M5519 3121 c-16 -16 -29 -39 -29 -51 0 -26 52 -80 77 -80 53 0 92 63
68 110 -29 56 -72 64 -116 21z"/>
<path d="M16114 3292 c-58 -37 -91 -158 -79 -287 10 -105 37 -159 93 -186 42
-21 48 -21 86 -8 25 9 49 27 62 47 65 96 56 344 -15 416 -38 37 -103 45 -147
18z"/>
<path d="M18144 3300 c-32 -13 -72 -66 -85 -113 -6 -23 -11 -84 -11 -137 1
-147 35 -219 113 -240 71 -19 130 22 156 109 23 82 15 251 -17 315 -31 65 -94
92 -156 66z"/>
<path d="M10208 3293 c-2 -10 -4 -54 -4 -98 l1 -80 80 -3 c98 -4 120 2 151 35
45 49 25 130 -38 152 -17 6 -66 11 -108 11 -66 0 -78 -3 -82 -17z"/>
<path d="M12010 3054 l0 -247 69 5 c85 6 126 29 164 89 55 90 55 228 -1 318
-37 60 -80 81 -164 81 l-68 0 0 -246z"/>
<path d="M12817 3101 c-20 -66 -37 -122 -37 -125 0 -3 36 -6 81 -6 72 0 80 2
75 18 -41 140 -71 232 -76 232 -3 0 -23 -54 -43 -119z"/>
<path d="M13500 3056 l0 -246 48 0 c147 0 224 85 226 250 1 63 -4 84 -27 132
-40 81 -73 102 -169 107 l-78 3 0 -246z"/>
<path d="M14607 3108 c-20 -68 -37 -126 -37 -130 0 -5 36 -8 81 -8 72 0 80 2
75 18 -50 160 -77 242 -80 242 -1 0 -19 -55 -39 -122z"/>
<path d="M15290 3055 l0 -245 48 0 c26 0 65 5 87 11 169 47 185 380 23 465
-15 8 -56 14 -93 14 l-65 0 0 -245z"/>
<path d="M19470 3225 l0 -85 101 0 c98 0 101 1 130 29 17 18 29 40 29 56 0 16
-12 38 -29 56 -29 28 -32 29 -130 29 l-101 0 0 -85z"/>
<path d="M19477 2993 c-4 -3 -7 -46 -7 -95 l0 -88 104 0 c97 0 107 2 134 25
36 30 47 67 30 103 -21 44 -71 62 -169 62 -47 0 -89 -3 -92 -7z"/>
<path d="M20318 3224 c-3 -5 -21 -58 -38 -119 -18 -60 -35 -116 -38 -122 -3
-10 16 -13 77 -13 45 0 81 3 81 8 -1 22 -78 253 -82 246z"/>
</g>
</svg>
